<svg width="110" height="42" viewBox="0 0 110 42" fill="none" xmlns="http://www.w3.org/2000/svg">
<rect x="7.18584" y="7.18608" width="102.238" height="33.2561" fill="white" stroke="#223E3F" stroke-width="1.15244"/>
<rect x="3.88115" y="3.88103" width="102.238" height="33.2561" fill="white" stroke="#223E3F" stroke-width="1.15244"/>
<rect x="0.576219" y="0.576219" width="102.238" height="33.2561" fill="white" stroke="#223E3F" stroke-width="1.15244"/>
<path d="M16.2562 11.2907C17.1351 11.2907 17.8942 11.4855 18.5334 11.875C19.1826 12.2646 19.682 12.8189 20.0316 13.538C20.3911 14.2571 20.5709 15.0961 20.5709 16.0549C20.5709 17.0637 20.3812 17.9476 20.0016 18.7067C19.6321 19.4558 19.1127 20.0451 18.4435 20.4745C17.7743 20.894 16.9953 21.1038 16.1064 21.1038H10.9527V20.6993C11.1924 20.6194 11.4421 20.5494 11.7018 20.4895C11.9714 20.4296 12.2611 20.3846 12.5707 20.3547L12.7055 12.0548L10.9527 11.7252V11.2907H16.2562ZM16.9603 20.2648C17.7194 19.9252 18.2937 19.4158 18.6832 18.7367C19.0728 18.0575 19.2675 17.2135 19.2675 16.2047C19.2675 15.5056 19.1876 14.9013 19.0278 14.392C18.878 13.8826 18.6583 13.4631 18.3686 13.1335C18.079 12.7939 17.7444 12.5442 17.3648 12.3844C16.9853 12.2146 16.5658 12.1297 16.1064 12.1297H13.3647L13.8891 11.6203V20.7742L13.3647 20.2648H16.9603ZM30.4738 20.3397L31.9271 20.6543V21.1038H29.2903L28.7959 18.3771C28.696 17.7878 28.5162 17.3783 28.2565 17.1486C27.9969 16.9189 27.5924 16.804 27.043 16.804H24.571V15.98H27.7022C28.2615 15.7103 28.671 15.4107 28.9307 15.0811C29.1904 14.7515 29.3202 14.367 29.3202 13.9275C29.3202 13.3682 29.1355 12.9287 28.7659 12.6091C28.4064 12.2895 27.912 12.1297 27.2827 12.1297H25.1254V20.3547L26.7434 20.6543V21.1038H22.189V20.6993C22.3488 20.6194 22.5635 20.5544 22.8332 20.5045C23.1028 20.4446 23.4274 20.3946 23.807 20.3547L23.9418 12.0548L22.189 11.7252V11.2907H27.5075C28.4363 11.2907 29.1804 11.5105 29.7397 11.9499C30.2991 12.3894 30.5787 12.9687 30.5787 13.6878C30.5787 14.3071 30.379 14.8564 29.9794 15.3358C29.5799 15.8152 29.0506 16.1498 28.3914 16.3396C28.8708 16.4594 29.2403 16.6842 29.5 17.0138C29.7697 17.3334 29.9645 17.7928 30.0843 18.3921L30.4738 20.3397ZM33.0448 21.1038V20.6993C33.3245 20.6194 33.5992 20.5494 33.8688 20.4895C34.1385 20.4296 34.4032 20.3846 34.6629 20.3547L34.7977 12.0548L33.0448 11.7252V11.2907H37.5843V11.6803C37.3446 11.7602 37.0899 11.8301 36.8202 11.89C36.5506 11.9499 36.2709 11.9949 35.9813 12.0248V20.3547L37.5843 20.6543V21.1038H33.0448ZM44.2267 11.2907C44.8859 11.2907 45.4452 11.4056 45.9046 11.6353C46.3641 11.8551 46.7186 12.1747 46.9683 12.5942C47.218 13.0136 47.3429 13.513 47.3429 14.0923C47.3429 14.7216 47.1931 15.2709 46.8934 15.7403C46.6038 16.2097 46.1943 16.5793 45.6649 16.849C45.1356 17.1086 44.5163 17.2385 43.8072 17.2385H41.3502V16.3995H44.796C45.2454 16.1099 45.5701 15.7902 45.7698 15.4407C45.9796 15.0811 46.0844 14.6666 46.0844 14.1972C46.0844 13.518 45.8996 13.0037 45.5301 12.6541C45.1705 12.3045 44.6462 12.1297 43.957 12.1297H41.9944V20.3547L44.0619 20.6543V21.1038H39.058V20.6993C39.2378 20.6194 39.4575 20.5494 39.7172 20.4895C39.9769 20.4296 40.2965 20.3846 40.676 20.3547L40.8109 12.0548L39.058 11.7252V11.2907H44.2267ZM59.5495 17.1486H59.9689V21.1038H52.3133V20.6993C52.593 20.6194 52.8676 20.5494 53.1373 20.4895C53.407 20.4296 53.6716 20.3846 53.9313 20.3547L54.0662 12.0548L52.3133 11.7252V11.2907H57.0775V11.6803C56.8078 11.7602 56.5182 11.8301 56.2085 11.89C55.8989 11.9499 55.5793 11.9949 55.2497 12.0248V20.2648H58.9802L59.5495 17.1486ZM65.6649 21.2386C64.806 21.2386 64.0469 21.0338 63.3877 20.6243C62.7385 20.2148 62.2291 19.6455 61.8596 18.9164C61.5 18.1773 61.3202 17.3134 61.3202 16.3246C61.3202 15.3158 61.515 14.4269 61.9045 13.6579C62.304 12.8788 62.8434 12.2695 63.5225 11.8301C64.2117 11.3806 64.9907 11.1559 65.8597 11.1559C66.7286 11.1559 67.4927 11.3657 68.1519 11.7851C68.8211 12.1946 69.3404 12.7689 69.71 13.508C70.0795 14.2371 70.2643 15.0911 70.2643 16.0699C70.2643 17.0787 70.0695 17.9726 69.68 18.7516C69.3005 19.5307 68.7661 20.1399 68.077 20.5794C67.3878 21.0189 66.5838 21.2386 65.6649 21.2386ZM65.7848 20.3846C66.414 20.3846 66.9683 20.2099 67.4477 19.8603C67.9272 19.5107 68.3017 19.0163 68.5714 18.3771C68.841 17.7379 68.9759 16.9938 68.9759 16.1448C68.9759 15.3158 68.846 14.5967 68.5864 13.9874C68.3267 13.3782 67.9521 12.9088 67.4627 12.5792C66.9833 12.2396 66.414 12.0698 65.7548 12.0698C65.3353 12.0698 64.9108 12.1497 64.4814 12.3095C64.0519 12.4593 63.6574 12.684 63.2978 12.9837L63.7622 12.4443C62.9832 13.6429 62.5937 14.9263 62.5937 16.2946C62.5937 17.1036 62.7285 17.8178 62.9982 18.437C63.2679 19.0563 63.6374 19.5357 64.1068 19.8753C64.5862 20.2148 65.1456 20.3846 65.7848 20.3846ZM76.7988 21.2386C75.9398 21.2386 75.1808 21.0338 74.5216 20.6243C73.8724 20.2148 73.363 19.6455 72.9934 18.9164C72.6339 18.1773 72.4541 17.3134 72.4541 16.3246C72.4541 15.3158 72.6489 14.4269 73.0384 13.6579C73.4379 12.8788 73.9772 12.2695 74.6564 11.8301C75.3456 11.3806 76.1246 11.1559 76.9935 11.1559C77.8625 11.1559 78.6266 11.3657 79.2858 11.7851C79.9549 12.1946 80.4743 12.7689 80.8438 13.508C81.2134 14.2371 81.3982 15.0911 81.3982 16.0699C81.3982 17.0787 81.2034 17.9726 80.8139 18.7516C80.4343 19.5307 79.9 20.1399 79.2108 20.5794C78.5217 21.0189 77.7177 21.2386 76.7988 21.2386ZM76.9186 20.3846C77.5479 20.3846 78.1022 20.2099 78.5816 19.8603C79.061 19.5107 79.4356 19.0163 79.7052 18.3771C79.9749 17.7379 80.1097 16.9938 80.1097 16.1448C80.1097 15.3158 79.9799 14.5967 79.7202 13.9874C79.4605 13.3782 79.086 12.9088 78.5966 12.5792C78.1172 12.2396 77.5479 12.0698 76.8887 12.0698C76.4692 12.0698 76.0447 12.1497 75.6152 12.3095C75.1858 12.4593 74.7912 12.684 74.4317 12.9837L74.8961 12.4443C74.1171 13.6429 73.7275 14.9263 73.7275 16.2946C73.7275 17.1036 73.8624 17.8178 74.132 18.437C74.4017 19.0563 74.7713 19.5357 75.2407 19.8753C75.7201 20.2148 76.2794 20.3846 76.9186 20.3846ZM88.2208 11.2907C88.88 11.2907 89.4393 11.4056 89.8988 11.6353C90.3582 11.8551 90.7128 12.1747 90.9625 12.5942C91.2122 13.0136 91.337 13.513 91.337 14.0923C91.337 14.7216 91.1872 15.2709 90.8876 15.7403C90.5979 16.2097 90.1884 16.5793 89.6591 16.849C89.1297 17.1086 88.5105 17.2385 87.8013 17.2385H85.3443V16.3995H88.7901C89.2396 16.1099 89.5642 15.7902 89.7639 15.4407C89.9737 15.0811 90.0785 14.6666 90.0785 14.1972C90.0785 13.518 89.8938 13.0037 89.5242 12.6541C89.1647 12.3045 88.6403 12.1297 87.9511 12.1297H85.9885V20.3547L88.056 20.6543V21.1038H83.0521V20.6993C83.2319 20.6194 83.4516 20.5494 83.7113 20.4895C83.971 20.4296 84.2906 20.3846 84.6701 20.3547L84.805 12.0548L83.0521 11.7252V11.2907H88.2208Z" fill="#223E3F"/>
</svg>
